<svg id="Capa_1" enable-background="new 0 0 512 512" height="512" viewBox="0 0 512 512" width="512" xmlns="http://www.w3.org/2000/svg"><g><g><path d="m396.177 493.419c-4.109-53.65-24.392-116.747-40.558-159.949l-199.238.001c-16.166 43.202-36.449 106.299-40.557 159.948l140.176 9z" fill="#dae4ea"/><path d="m282.583 362.717c-3.839-10.982-14.291-18.86-26.583-18.86s-22.744 7.878-26.583 18.86c-1.017 2.909-.06 28.445 26.583 28.445s27.6-25.536 26.583-28.445z" fill="#f6e080"/><path d="m256 381.582c-12.292 0-22.737-7.881-26.576-18.862-1.017 2.909-1.576 6.034-1.576 9.29 0 15.548 12.604 28.153 28.153 28.153 15.548 0 28.152-12.605 28.152-28.153 0-3.257-.559-6.381-1.577-9.29-3.839 10.981-14.284 18.862-26.576 18.862z" fill="#eccd61"/><path d="m347.751 313.103h-183.501c-2.432 6.103-5.089 12.939-7.868 20.368 26.8 6.627 59.641 10.386 99.618 10.386 39.978 0 72.819-3.759 99.619-10.386-2.78-7.429-5.436-14.265-7.868-20.368z" fill="#dc4955"/><path d="m256 325.259c38.57 0 68.621-4.486 91.751-12.155-2.531-6.352-4.82-11.909-6.747-16.492h-170.008c-1.926 4.583-4.215 10.141-6.746 16.492 23.129 7.668 53.18 12.155 91.75 12.155z" fill="#d82f3c"/><g fill="#5e6b75"><path d="m77.882 170.221 25.586 8.807c.835.287 1.684.423 2.52.423 3.214 0 6.216-2.016 7.321-5.224 1.391-4.043-.758-8.449-4.8-9.841l-25.586-8.806c-4.043-1.394-8.449.759-9.841 4.8-1.391 4.044.758 8.449 4.8 9.841z"/><path d="m110.923 211.35c0-4.276-3.466-7.742-7.742-7.742h-29.563c-4.276 0-7.742 3.466-7.742 7.742s3.466 7.742 7.742 7.742h29.563c4.277 0 7.742-3.465 7.742-7.742z"/><path d="m116.887 241.319c-2.091-3.729-6.812-5.057-10.539-2.965l-23.023 12.914c-3.73 2.092-5.056 6.811-2.965 10.539 1.419 2.531 4.049 3.956 6.759 3.956 1.282 0 2.583-.319 3.78-.991l23.023-12.914c3.73-2.091 5.057-6.81 2.965-10.539z"/></g><g fill="#5e6b75"><path d="m434.118 170.221-25.586 8.807c-.835.287-1.684.423-2.52.423-3.214 0-6.216-2.016-7.321-5.224-1.391-4.043.758-8.449 4.8-9.841l25.586-8.806c4.043-1.394 8.449.759 9.841 4.8 1.392 4.044-.758 8.449-4.8 9.841z"/><path d="m401.077 211.35c0-4.276 3.466-7.742 7.742-7.742h29.564c4.276 0 7.742 3.466 7.742 7.742s-3.466 7.742-7.742 7.742h-29.564c-4.277 0-7.742-3.465-7.742-7.742z"/><path d="m395.113 241.319c2.091-3.729 6.811-5.057 10.539-2.965l23.023 12.914c3.73 2.092 5.056 6.811 2.965 10.539-1.419 2.531-4.049 3.956-6.759 3.956-1.282 0-2.583-.319-3.78-.991l-23.023-12.914c-3.73-2.091-5.057-6.81-2.965-10.539z"/></g><path d="m396.936 137.491c.005-.043-2.097-20.405-2.097-20.405l4.758-9.102c2.47-38.475 2.692-101.601-21.695-107.517-17.915-4.346-41.228 22.62-54.173 40.096l.011 9.083-9.758 5.038c-17.664-7.115-36.77-10.062-57.983-10.062-21.212 0-40.319 2.946-57.982 10.062 0 0-8.371-5.192-8.371-5.192l-1.376-8.929c-12.945-17.476-36.258-44.441-54.173-40.096-24.387 5.916-24.164 69.042-21.695 107.517l7.567 8.696s-4.912 20.765-4.906 20.811c-32.777 62.591-47.113 160.187 140.937 160.187s173.714-97.595 140.936-160.187z" fill="#dae4ea"/><path d="m256 288.097c-117.687 0-156.103-41.751-160.344-88.337-4.509 53.44 27.15 106.917 160.344 106.917s164.853-53.477 160.344-106.918c-4.24 46.587-42.656 88.338-160.344 88.338z" fill="#c6d0da"/><path d="m256 201.688c9.641 0 26.032-1.854 26.495-12.038.497-10.922-9.427-14.677-26.495-14.677-17.069 0-26.992 3.755-26.495 14.677.463 10.184 16.854 12.038 26.495 12.038z" fill="#808b95"/><path d="m282.495 189.65c.194-4.258-1.203-7.422-3.982-9.704-5.558 6.757-15.712 12.161-22.513 12.161s-16.955-5.403-22.513-12.161c-2.779 2.282-4.176 5.446-3.982 9.704.353 7.755 9.942 15.894 18.753 19.337v38.719c0 4.276 3.466 7.742 7.742 7.742s7.742-3.466 7.742-7.742v-38.719c8.811-3.443 18.4-11.582 18.753-19.337z" fill="#5e6b75"/><g fill="#c6d0da"><path d="m132.555 81.994c-6.833 7.674-13.535 16.309-20.151 25.99 1.103 17.177 2.652 29.446 2.66 29.507 2.877-5.493 5.894-10.649 8.931-15.363 3.535-5.487 7.094-10.625 10.686-15.434l4.06-15.737z"/><path d="m188.27 40.563c-7 2.979-13.799 6.558-20.432 10.793l.983 10.096 8.471 3.99c6.693-4.303 13.575-7.857 20.693-10.727l.033-.032s-3.769-6.049-9.748-14.12z"/></g><path d="m132.555 81.994s19.326-12.844 19.326-12.844l15.956-17.796c-7.544-10.132-17.353-20.578-24.741-18.785-10.577 2.565-11.621 27.928-10.541 49.425z" fill="#808b95"/><path d="m132.555 81.994c.499 9.938 1.452 19.05 2.127 24.7 13.568-18.164 27.611-31.607 42.611-41.251-2.019-3.319-5.413-8.659-9.456-14.09-12.263 7.83-23.953 17.918-35.282 30.641z" fill="#5e6b75"/><g fill="#c6d0da"><path d="m379.445 81.994c6.833 7.674 13.535 16.309 20.151 25.99-1.103 17.177-2.652 29.446-2.66 29.507-2.877-5.493-5.894-10.649-8.931-15.363-3.535-5.487-7.094-10.625-10.686-15.434l-4.06-15.737z"/><path d="m323.73 40.563c7 2.979 13.799 6.558 20.432 10.793l-.983 10.096-8.471 3.99c-6.693-4.303-13.575-7.857-20.693-10.727l-.033-.032s3.769-6.049 9.748-14.12z"/></g><path d="m379.445 81.994s-19.326-12.844-19.326-12.844l-15.956-17.796c7.544-10.132 17.353-20.578 24.741-18.785 10.577 2.565 11.621 27.928 10.541 49.425z" fill="#808b95"/><path d="m379.445 81.994c-.499 9.938-1.452 19.05-2.127 24.7-13.568-18.164-27.611-31.607-42.611-41.251 2.019-3.319 5.413-8.659 9.456-14.09 12.263 7.83 23.953 17.918 35.282 30.641z" fill="#5e6b75"/><path d="m115.814 493.419c-.345 4.504-.578 8.941-.683 13.295-.071 2.9 2.266 5.286 5.167 5.286h271.406c2.901 0 5.238-2.385 5.167-5.286-.106-4.353-.339-8.791-.684-13.295z" fill="#c6d0da"/></g><g fill="#808b95"><path d="m190.077 142.237c-4.285 0-7.757 3.472-7.757 7.757v19.234c0 4.285 3.473 7.757 7.757 7.757 4.285 0 7.757-3.473 7.757-7.757v-19.234c.001-4.284-3.472-7.757-7.757-7.757z"/><path d="m321.923 142.237c-4.285 0-7.757 3.472-7.757 7.757v19.234c0 4.285 3.473 7.757 7.757 7.757 4.285 0 7.757-3.473 7.757-7.757v-19.234c0-4.284-3.473-7.757-7.757-7.757z"/></g></g></svg>