<?xml version="1.0" encoding="iso-8859-1"?>
<!-- Generator: Adobe Illustrator 19.0.0, SVG Export Plug-In . SVG Version: 6.00 Build 0)  -->
<svg version="1.1" id="Capa_1" xmlns="http://www.w3.org/2000/svg" xmlns:xlink="http://www.w3.org/1999/xlink" x="0px" y="0px"
	 viewBox="0 0 236.595 236.595" style="enable-background:new 0 0 236.595 236.595;" xml:space="preserve">
<g>
	<path style="fill:#EBEBEC;" d="M138.214,79.357c6.257-3.479,43.188-69.854,51.529-77.502c8.343-7.649,6.258,10.427,7.648,16.684
		c1.391,6.257,14.119,111.804,14.217,124.985c0.145,19.346-1.704,93.071-91.15,93.071h-4.634c-89.447,0-90.981-75.953-90.837-95.299
		C25.085,128.115,37.5,24.796,38.89,18.539c1.391-6.257-0.695-24.333,7.647-16.684c8.342,7.647,45.274,74.023,51.531,77.502
		C104.325,82.833,131.957,82.833,138.214,79.357z"/>
	<path style="fill:#FCE0E0;" d="M41.893,112.223c5.399,5.677,18.952,2.495,29.512-5.397c6.336-4.734,22.205-18.816,15.538-30.314
		c-10.081-17.377-32.41-65.192-41.447-60.326C40.429,18.914,33.124,103.004,41.893,112.223z"/>
	<path style="fill:#FCE0E0;" d="M193.62,112.223c-5.398,5.677-18.951,2.495-29.512-5.397c-6.336-4.734-22.205-18.816-15.537-30.314
		c10.08-17.377,32.41-65.192,41.447-60.326C195.085,18.914,202.39,103.004,193.62,112.223z"/>
	<g>
		<path style="fill:#BFBEBE;" d="M97.766,157.231c0,0-2.085-24.68-16.337-27.46c-14.251-2.781-22.593,5.445-22.593,5.445
			S53.677,165.524,97.766,157.231z"/>
		<circle style="fill:#97EFEC;" cx="78.208" cy="143.931" r="13.729"/>
		<circle style="fill:#4C4845;" cx="78.901" cy="143.758" r="8.11"/>
		<circle style="fill:#FFFFFF;" cx="78.441" cy="142.542" r="2.548"/>
	</g>
	<g>
		<path style="fill:#BFBEBE;" d="M135.04,157.058c0,0,2.086-24.681,16.337-27.46c14.251-2.781,22.593,5.445,22.593,5.445
			S179.13,165.351,135.04,157.058z"/>
		<circle style="fill:#97EFEC;" cx="154.599" cy="143.758" r="13.73"/>
		<circle style="fill:#4C4845;" cx="153.906" cy="143.585" r="8.11"/>
		<path style="fill:#FFFFFF;" d="M151.818,142.369c0,1.406,1.142,2.546,2.549,2.546c1.408,0,2.549-1.14,2.549-2.546
			c0-1.409-1.141-2.55-2.549-2.55C152.959,139.819,151.818,140.96,151.818,142.369z"/>
	</g>
	<path style="fill:#F9B9B9;" d="M107.115,209.971c0,0,4.944,3.739,9.289,3.739c4.344,0,9.27-3.739,9.27-3.739l1.506-5.299
		l-10.403-2.882h-0.745L107.115,209.971z"/>
	<path style="fill:#EBEBEC;" d="M116.404,196.505c0,7.967-6.459,14.425-14.425,14.425c-7.968,0-14.426-6.458-14.426-14.425"/>
	<path style="fill:#EBEBEC;" d="M145.253,196.505c0,7.967-6.459,14.425-14.425,14.425c-7.967,0-14.425-6.458-14.425-14.425"/>
	<path style="fill:#DDD7D7;" d="M131.82,210.929c-7.523,0-13.779-5.392-15.135-12.521h-0.281c0,8.515,6.903,15.417,15.416,15.417
		c8.516,0,15.42-6.902,15.42-15.417h-0.281C145.601,205.538,139.343,210.929,131.82,210.929z"/>
	<path style="fill:#DDD7D7;" d="M100.985,210.929c-7.523,0-13.779-5.392-15.136-12.521h-0.281c0,8.515,6.902,15.417,15.417,15.417
		c8.515,0,15.419-6.902,15.419-15.417h-0.281C114.766,205.538,108.508,210.929,100.985,210.929z"/>
	<path style="fill:#F9B9B9;" d="M122.137,173.971h-11.464c-15.431,0-10.442,13.869-5.821,13.869c6.62,0,8.027,3.2,10.456,3.983
		l0.687,10.122h0.816l0.69-10.119c2.427-0.784,3.834-3.986,10.454-3.986C132.573,187.841,137.566,173.971,122.137,173.971z"/>
	<path style="opacity:0.2;fill:#FFFFFF;" d="M116.466,81.949c-7.842-0.115-15.356-0.978-18.261-2.592
		C91.948,75.879,55.016,9.503,46.674,1.855c-8.342-7.649-6.256,10.427-7.647,16.684c-1.39,6.257-13.806,109.576-13.903,122.758
		c-0.143,19.346,1.39,95.299,90.837,95.299h0.505V81.949z"/>
</g>
<g>
</g>
<g>
</g>
<g>
</g>
<g>
</g>
<g>
</g>
<g>
</g>
<g>
</g>
<g>
</g>
<g>
</g>
<g>
</g>
<g>
</g>
<g>
</g>
<g>
</g>
<g>
</g>
<g>
</g>
</svg>
